<svg width="120" height="100" viewBox="0 0 120 100" fill="none" xmlns="http://www.w3.org/2000/svg">
<g id="Triangle">
<g clip-path="url(#clip0_1_2)">
<g id="LightGroup">
<path id="light1" d="M37.24 45.1837C38.5652 45.9674 38.5451 47.8918 37.2038 48.6476L10.7973 63.5287C9.45604 64.2846 7.7995 63.305 7.81554 61.7655L8.13143 31.4562C8.14748 29.9167 9.82408 28.9719 11.1493 29.7555L37.24 45.1837Z" fill="#8AB8FE" fill-opacity="0.7"/>
</g>
<g id="DarkGroup">
<path id="dark1" d="M49.24 45.1838C50.5653 45.9674 50.5452 47.8918 49.2039 48.6477L22.7974 63.5287C21.4561 64.2846 19.7996 63.305 19.8156 61.7655L20.1315 31.4563C20.1475 29.9167 21.8241 28.9719 23.1494 29.7556L49.24 45.1838Z" fill="#495BFD" fill-opacity="0.7"/>
<path id="dark2" d="M37.24 45.1837C38.5652 45.9674 38.5451 47.8918 37.2038 48.6476L10.7973 63.5287C9.45604 64.2846 7.7995 63.305 7.81554 61.7655L8.13143 31.4562C8.14748 29.9167 9.82408 28.9719 11.1493 29.7555L37.24 45.1837Z" fill="#6F4ADA" fill-opacity="0.7"/>
</g>
</g>
</g>
<defs>
<clipPath id="clip0_1_2">
<rect width="120" height="100" fill="white"/>
</clipPath>
</defs>
</svg>
